<?xml version="1.0" encoding="UTF-8"?>
<svg id="Layer_1" xmlns="http://www.w3.org/2000/svg" viewBox="0 0 408 519.39">
  <defs>
    <style>
      .cls-1 {
        fill: #00aceb;
      }

      .cls-2 {
        fill: #1cc600;
      }

      .cls-3 {
        fill: #002969;
      }

      .cls-4 {
        fill: #d2f1ff;
      }

      .cls-5 {
        fill: #fff;
      }
    </style>
  </defs>
  <g>
    <path class="cls-5" d="M366,0H42C18.8,0,0,18.8,0,42v435.39c0,23.2,18.8,42,42,42h324c23.2,0,42-18.8,42-42V42c0-23.2-18.8-42-42-42Z"/>
    <path class="cls-4" d="M359.88,357.1H47.88c-8.84,0-16,7.16-16,16v98.46c0,8.84,7.16,16,16,16h312c8.84,0,16-7.16,16-16v-98.46c0-8.84-7.16-16-16-16Z"/>
    <g>
      <path class="cls-3" d="M93.27,411c1.05-1.46,1.58-3.27,1.58-5.44,0-1.77-.33-3.22-.98-4.37-.65-1.18-1.5-2.12-2.56-2.83-1.05-.71-2.21-1.29-3.48-1.72-1.27-.43-2.54-.81-3.81-1.12-1.27-.31-2.45-.63-3.53-.98-1.05-.37-1.9-.84-2.56-1.39-.65-.56-.98-1.32-.98-2.28,0-.84.23-1.55.7-2.14.46-.62,1.1-1.08,1.9-1.39.84-.34,1.81-.51,2.93-.51,1.8,0,3.31.45,4.55,1.35,1.27.9,2.14,2.21,2.6,3.95l4.83-1.86c-.4-1.64-1.18-3.07-2.32-4.27-1.11-1.24-2.49-2.18-4.13-2.83-1.64-.68-3.47-1.02-5.48-1.02s-3.86.37-5.53,1.12c-1.67.74-3,1.78-4,3.11-.99,1.33-1.49,2.91-1.49,4.74,0,1.67.31,3.05.93,4.13.65,1.08,1.5,1.97,2.56,2.65,1.08.68,2.26,1.24,3.53,1.67,1.27.4,2.54.79,3.81,1.16,1.27.34,2.43.71,3.48,1.11,1.08.4,1.94.93,2.56,1.58.65.62.98,1.46.98,2.51,0,1.12-.28,2.03-.84,2.74-.53.68-1.24,1.19-2.14,1.53-.9.34-1.92.51-3.07.51-2.08,0-3.89-.59-5.44-1.77-1.52-1.21-2.51-2.9-2.97-5.06l-4.97,1.44c.5,2.14,1.36,3.96,2.6,5.48,1.27,1.49,2.82,2.63,4.65,3.44,1.86.77,3.9,1.16,6.13,1.16s4.07-.37,5.81-1.11c1.73-.74,3.11-1.84,4.13-3.3Z"/>
      <polygon class="cls-3" points="90.19 434.31 90.19 457.45 90.19 462.14 95.67 462.14 95.67 457.45 95.67 434.31 95.67 429.62 90.19 429.62 90.19 434.31"/>
      <path class="cls-3" d="M294.08,401.19h5.77l8.12,13.84h6.36l-8.97-14.69c1.14-.48,2.14-1.11,2.98-1.9.9-.87,1.58-1.86,2.04-2.97.5-1.15.74-2.35.74-3.62,0-1.86-.43-3.48-1.3-4.88-.84-1.42-2.01-2.52-3.53-3.3-1.52-.77-3.27-1.16-5.25-1.16h-12.45v32.52h5.48v-13.84ZM294.08,387.21h6.04c1.15,0,2.12.2,2.93.6.84.37,1.49.91,1.95,1.63.46.68.7,1.49.7,2.42s-.23,1.75-.7,2.46c-.46.68-1.12,1.22-1.95,1.63-.81.37-1.78.56-2.93.56h-6.04v-9.29Z"/>
      <path class="cls-3" d="M132.71,401.19h5.77l8.12,13.84h6.36l-8.97-14.69c1.14-.48,2.14-1.11,2.98-1.9.9-.87,1.58-1.86,2.04-2.97.5-1.15.74-2.35.74-3.62,0-1.86-.43-3.48-1.3-4.88-.84-1.42-2.01-2.52-3.53-3.3-1.52-.77-3.27-1.16-5.25-1.16h-12.45v32.52h5.48v-13.84ZM132.71,387.21h6.04c1.15,0,2.12.2,2.93.6.84.37,1.49.91,1.95,1.63.47.68.7,1.49.7,2.42s-.23,1.75-.7,2.46c-.46.68-1.11,1.22-1.95,1.63-.81.37-1.78.56-2.93.56h-6.04v-9.29Z"/>
      <polygon class="cls-3" points="200.53 400.4 213.63 400.4 213.63 395.71 200.53 395.71 200.53 387.21 216.65 387.21 216.65 382.52 195.05 382.52 195.05 415.04 200.53 415.04 200.53 400.4"/>
      <polygon class="cls-3" points="188.09 410.35 188.09 387.21 188.09 382.52 182.61 382.52 182.61 387.21 182.61 410.35 182.61 415.04 188.09 415.04 188.09 410.35"/>
      <polygon class="cls-3" points="162.72 415.04 168.2 415.04 168.2 387.21 178.19 387.21 178.19 382.52 152.73 382.52 152.73 387.21 162.72 387.21 162.72 415.04"/>
      <polygon class="cls-3" points="122.01 410.35 105.75 410.35 105.75 400.4 118.85 400.4 118.85 395.71 105.75 395.71 105.75 387.21 121.87 387.21 121.87 382.52 100.27 382.52 100.27 415.04 122.01 415.04 122.01 410.35"/>
      <path class="cls-3" d="M247.76,410.21c-.9.34-1.92.51-3.07.51-2.07,0-3.89-.59-5.44-1.77-1.52-1.21-2.51-2.9-2.97-5.06l-4.97,1.44c.5,2.14,1.36,3.96,2.6,5.48,1.27,1.49,2.82,2.63,4.65,3.44,1.86.77,3.9,1.16,6.13,1.16s4.07-.37,5.81-1.11,3.11-1.84,4.13-3.3c1.05-1.46,1.58-3.27,1.58-5.44,0-1.77-.33-3.22-.98-4.37-.65-1.18-1.5-2.12-2.55-2.83-1.05-.71-2.21-1.29-3.48-1.72-1.27-.43-2.54-.81-3.81-1.12-1.27-.31-2.45-.63-3.53-.98-1.05-.37-1.9-.84-2.55-1.39-.65-.56-.98-1.32-.98-2.28,0-.84.23-1.55.7-2.14.46-.62,1.1-1.08,1.9-1.39.84-.34,1.81-.51,2.93-.51,1.8,0,3.31.45,4.55,1.35,1.27.9,2.14,2.21,2.6,3.95l4.83-1.86c-.4-1.64-1.18-3.07-2.32-4.27-1.11-1.24-2.49-2.18-4.13-2.83-1.64-.68-3.47-1.02-5.48-1.02s-3.86.37-5.53,1.12c-1.67.74-3,1.78-4,3.11-.99,1.33-1.49,2.91-1.49,4.74,0,1.67.31,3.05.93,4.13.65,1.08,1.5,1.97,2.56,2.65,1.08.68,2.26,1.24,3.53,1.67,1.27.4,2.54.79,3.81,1.16,1.27.34,2.43.71,3.48,1.11,1.08.4,1.94.93,2.56,1.58.65.62.98,1.46.98,2.51,0,1.12-.28,2.03-.84,2.74-.53.68-1.24,1.19-2.14,1.53Z"/>
      <polygon class="cls-3" points="71.18 455.36 61.7 429.62 55.89 429.62 67.97 462.14 74.2 462.14 86.33 429.62 80.66 429.62 71.18 455.36"/>
      <polygon class="cls-3" points="307.58 447.51 320.68 447.51 320.68 442.82 307.58 442.82 307.58 434.31 323.7 434.31 323.7 429.62 302.1 429.62 302.1 462.14 323.84 462.14 323.84 457.45 307.58 457.45 307.58 447.51"/>
      <polygon class="cls-3" points="289.65 442.77 274.04 442.77 274.04 429.62 268.56 429.62 268.56 462.14 274.04 462.14 274.04 447.46 289.65 447.46 289.65 462.14 295.13 462.14 295.13 429.62 289.65 429.62 289.65 442.77"/>
      <polygon class="cls-3" points="351.87 429.62 326.41 429.62 326.41 434.31 336.4 434.31 336.4 462.14 341.88 462.14 341.88 434.31 351.87 434.31 351.87 429.62"/>
      <path class="cls-3" d="M122.37,445.56c.9-.87,1.58-1.86,2.04-2.97.5-1.15.74-2.35.74-3.62,0-1.86-.43-3.48-1.3-4.88-.84-1.42-2.01-2.52-3.53-3.3s-3.27-1.16-5.25-1.16h-12.45v32.52h5.48v-13.84h5.77l8.12,13.84h6.37l-8.97-14.69c1.14-.48,2.14-1.11,2.98-1.9ZM108.11,434.31h6.04c1.15,0,2.12.2,2.93.6.84.37,1.49.91,1.95,1.63.46.68.7,1.49.7,2.42s-.23,1.75-.7,2.46c-.46.68-1.11,1.22-1.95,1.63-.81.37-1.78.56-2.93.56h-6.04v-9.29Z"/>
      <polygon class="cls-3" points="283.38 410.35 267.12 410.35 267.12 400.4 280.22 400.4 280.22 395.71 267.12 395.71 267.12 387.21 283.24 387.21 283.24 382.52 261.64 382.52 261.64 415.04 283.38 415.04 283.38 410.35"/>
      <polygon class="cls-3" points="329.57 415.04 329.57 387.21 339.55 387.21 339.55 382.52 314.09 382.52 314.09 387.21 324.08 387.21 324.08 415.04 329.57 415.04"/>
      <polygon class="cls-3" points="158.33 429.62 151.08 429.62 137.75 443.35 137.75 429.62 132.27 429.62 132.27 462.14 137.75 462.14 137.75 450.71 142.01 446.34 152.89 462.14 159.58 462.14 145.7 442.56 158.33 429.62"/>
      <path class="cls-3" d="M180.5,445.46c-1.05-.71-2.21-1.29-3.48-1.72-1.27-.43-2.54-.81-3.81-1.12-1.27-.31-2.45-.63-3.53-.97-1.05-.37-1.9-.84-2.56-1.39-.65-.56-.98-1.32-.98-2.28,0-.84.23-1.55.7-2.14.47-.62,1.1-1.08,1.9-1.39.84-.34,1.81-.51,2.93-.51,1.8,0,3.31.45,4.55,1.35,1.27.9,2.14,2.21,2.6,3.95l4.83-1.86c-.4-1.64-1.18-3.07-2.32-4.27-1.12-1.24-2.49-2.18-4.13-2.83-1.64-.68-3.47-1.02-5.48-1.02s-3.86.37-5.53,1.12-3,1.78-4,3.11c-.99,1.33-1.49,2.91-1.49,4.74,0,1.67.31,3.05.93,4.13.65,1.08,1.5,1.97,2.55,2.65,1.08.68,2.26,1.24,3.53,1.67,1.27.4,2.54.79,3.81,1.16,1.27.34,2.43.71,3.48,1.11,1.08.4,1.94.93,2.55,1.58.65.62.98,1.46.98,2.51,0,1.12-.28,2.03-.84,2.74-.53.68-1.24,1.19-2.14,1.53-.9.34-1.92.51-3.07.51-2.08,0-3.89-.59-5.44-1.77-1.52-1.21-2.51-2.9-2.97-5.06l-4.97,1.44c.5,2.14,1.36,3.96,2.6,5.48,1.27,1.49,2.82,2.63,4.65,3.44,1.86.77,3.9,1.16,6.13,1.16s4.07-.37,5.81-1.11c1.73-.74,3.11-1.84,4.13-3.3,1.05-1.46,1.58-3.27,1.58-5.44,0-1.77-.33-3.22-.98-4.37-.65-1.18-1.5-2.12-2.56-2.83Z"/>
      <path class="cls-3" d="M246.06,448.76c-.5,1.18-.91,2.23-1.25,3.16-.31.93-.56,1.67-.74,2.23-.15.53-.23.79-.23.79,0,0-.08-.26-.23-.79-.12-.56-.36-1.3-.7-2.23-.31-.93-.71-1.98-1.21-3.16l-7.99-19.14h-7.71v32.52h5.48v-18.63c0-1.3-.02-2.45-.05-3.44,0-.99-.02-1.75-.05-2.28-.03-.56-.05-.84-.05-.84,0,0,.09.26.28.79s.45,1.25.79,2.18c.34.9.76,1.95,1.25,3.16l7.94,19.05h4.37l7.94-19.05c.5-1.24.91-2.31,1.25-3.2.34-.93.6-1.66.79-2.18.19-.53.28-.79.28-.79,0,0-.02.28-.05.84,0,.56-.02,1.33-.05,2.32-.03.99-.05,2.14-.05,3.44v18.63h5.48v-32.52h-7.53l-7.99,19.14Z"/>
      <polygon class="cls-3" points="226.49 410.35 226.49 387.21 226.49 382.52 221.01 382.52 221.01 387.21 221.01 410.35 221.01 415.04 226.49 415.04 226.49 410.35"/>
      <path class="cls-3" d="M215.89,433.99c-1.46-1.52-3.19-2.68-5.2-3.48-1.98-.84-4.13-1.25-6.46-1.25s-4.54.42-6.55,1.25c-1.98.81-3.7,1.97-5.16,3.48-1.46,1.49-2.6,3.25-3.44,5.3-.81,2.01-1.21,4.21-1.21,6.6s.4,4.6,1.21,6.64c.84,2.01,1.98,3.78,3.44,5.3,1.46,1.49,3.17,2.65,5.16,3.48,2.01.81,4.2,1.21,6.55,1.21s4.48-.4,6.46-1.21c2.01-.84,3.75-2,5.2-3.48,1.46-1.52,2.59-3.28,3.39-5.3.84-2.04,1.25-4.26,1.25-6.64s-.42-4.58-1.25-6.6c-.81-2.04-1.94-3.81-3.39-5.3ZM214.26,450.67c-.53,1.42-1.28,2.68-2.28,3.76-.96,1.08-2.11,1.92-3.44,2.51-1.3.59-2.74.88-4.32.88-2.11,0-3.98-.51-5.62-1.53-1.64-1.02-2.93-2.43-3.86-4.23-.93-1.83-1.39-3.89-1.39-6.18,0-1.73.26-3.33.79-4.78.56-1.46,1.32-2.71,2.28-3.76.96-1.08,2.11-1.92,3.44-2.51,1.33-.59,2.79-.88,4.37-.88,2.11,0,3.96.51,5.58,1.53,1.64,1.02,2.93,2.43,3.86,4.23.93,1.8,1.39,3.86,1.39,6.18,0,1.74-.26,3.33-.79,4.79Z"/>
    </g>
  </g>
  <g>
    <path class="cls-3" d="M366.39,279.03c-.94-.54-1.69-1.28-2.22-2.23-.54-.95-.81-2.02-.81-3.21s.27-2.25.81-3.19c.54-.94,1.28-1.68,2.22-2.23.94-.55,2.01-.83,3.19-.83s2.24.28,3.18.83c.94.55,1.67,1.29,2.22,2.23.55.94.82,2,.82,3.19s-.27,2.26-.82,3.21c-.55.95-1.3,1.7-2.24,2.23-.94.54-2,.81-3.16.81s-2.25-.27-3.19-.81M372.16,278.01c.76-.44,1.36-1.05,1.79-1.83.43-.78.64-1.65.64-2.62s-.21-1.78-.64-2.56c-.43-.78-1.03-1.39-1.8-1.83-.77-.44-1.62-.66-2.55-.66s-1.8.22-2.57.66c-.76.44-1.36,1.05-1.79,1.83-.43.78-.64,1.64-.64,2.59s.22,1.81.64,2.59c.43.78,1.03,1.39,1.8,1.83.77.44,1.62.66,2.55.66s1.8-.22,2.57-.66h0ZM367.36,270.32h2.52c.63,0,1.12.18,1.47.53.35.35.53.83.53,1.4,0,.37-.09.7-.27,1-.18.3-.44.52-.76.65l1.8,2.95h-1.42l-1.61-2.69h-1.07v2.69h-1.19v-6.54h0ZM370.41,272.9c.18-.16.27-.37.27-.63,0-.28-.1-.5-.27-.66-.18-.16-.43-.24-.73-.24h-1.12v1.78h1.12c.3,0,.54-.08.73-.24h0Z"/>
    <g>
      <path class="cls-1" d="M48,32h312c8.84,0,16,7.16,16,16v185c0,8.84-7.16,16-16,16H48c-8.84,0-16-7.16-16-16V48c0-8.84,7.16-16,16-16"/>
      <path class="cls-3" d="M266.2,218.18c42.68,0,77.29-34.74,77.29-77.59s-34.6-77.59-77.29-77.59-77.29,34.74-77.29,77.59,34.6,77.59,77.29,77.59"/>
      <path class="cls-5" d="M65.89,73.27l141.69,117.9,48.77-127.56-186.84.2c-4.94,0-7.28,6.12-3.61,9.45"/>
      <path class="cls-2" d="M256.35,63.62c-27.26,3.54-51.76,21.6-62.3,49.17-10.54,27.57-4.36,57.45,13.54,78.39,27.26-3.54,51.76-21.6,62.3-49.17,10.54-27.57,4.36-57.45-13.54-78.39"/>
    </g>
    <g>
      <path class="cls-3" d="M32,275.13h12.33l10.12,24.27c2.08,5.26,3.12,9.22,3.12,9.22,0,0,1.04-3.96,3.18-9.15l10.13-24.34h12.01v45.43h-8.83v-23.63c0-5.65.26-9.8.26-9.8,0,0-1.36,3.96-3.44,9.15l-10.06,24.27h-6.75l-10.06-24.27c-2.08-5.19-3.38-9.09-3.38-9.09,0,0,.19,4.09.19,9.74v23.63h-8.83v-45.43Z"/>
      <path class="cls-3" d="M90.61,278.37c0-2.99,2.21-5.13,5.26-5.13s5.32,2.14,5.32,5.13-2.27,5.13-5.32,5.13-5.26-2.21-5.26-5.13ZM91.71,287.85h8.24v32.71h-8.24v-32.71Z"/>
      <path class="cls-3" d="M108.2,274.61h8.24v45.95h-8.24v-45.95Z"/>
      <path class="cls-3" d="M118.78,332.63l.26-6.88c.46.06,1.23.13,1.82.13,3.05,0,3.89-2.14,3.89-5.91v-32.13h8.24v33.17c0,7.59-3.83,11.88-11.16,11.88-1.1,0-2.08-.13-3.05-.26ZM123.58,278.37c0-2.99,2.21-5.13,5.26-5.13s5.32,2.14,5.32,5.13-2.27,5.13-5.32,5.13-5.26-2.21-5.26-5.13Z"/>
      <path class="cls-3" d="M146.62,318.81l-3.25,3.76-3.89-3.37,3.12-3.63c-2.6-2.99-4.09-6.88-4.09-11.42,0-9.87,7.2-16.81,17.14-16.81,3.44,0,6.56.84,9.15,2.34l3.37-3.89,3.89,3.44-3.24,3.76c2.53,2.92,3.96,6.75,3.96,11.16,0,9.93-7.2,16.94-17.13,16.94-3.38,0-6.43-.84-9.02-2.27ZM159.93,295.38c-1.23-.65-2.73-1.04-4.28-1.04-5.19,0-8.83,3.96-8.83,9.8,0,1.95.39,3.7,1.1,5.19l12.01-13.95ZM164.47,304.14c0-1.82-.39-3.5-1.04-4.87l-11.88,13.82c1.17.65,2.6.97,4.09.97,5.19,0,8.83-4.02,8.83-9.93Z"/>
      <path class="cls-3" d="M180.44,294.53h-5.26v-6.69h5.26v-2.66c0-7.66,5.06-11.62,11.62-11.62,1.95,0,3.57.26,5,.84l-.58,6.94c-1.3-.52-2.27-.71-3.37-.71-2.66,0-4.41,1.82-4.41,5.06v2.14h7.79v6.69h-7.79v26.03h-8.24v-26.03Z"/>
      <path class="cls-3" d="M210.49,319.85l-12.85-32h8.89l8.24,21.48,8.18-21.48h8.63l-17.78,44.52h-8.63l5.32-12.53Z"/>
      <path class="cls-3" d="M234.19,287.85h8.24v4.41c1.82-3.12,5.32-4.93,9.54-4.93,1.36,0,2.98.19,4.02.65l-.58,7.79c-1.3-.52-2.73-.71-4.15-.71-4.74,0-8.83,3.89-8.83,13.11v12.4h-8.24v-32.71Z"/>
      <path class="cls-3" d="M263.52,309.66v-15.12h-5.26v-6.69h5.26v-7.98h8.24v7.98h7.72v6.69h-7.72v14.41c0,3.31,1.75,5,4.41,5,1.17,0,2.21-.26,3.31-.65l.58,6.94c-1.43.58-3.24.84-5,.84-6.55,0-11.55-4.02-11.55-11.42Z"/>
      <path class="cls-3" d="M283.38,311.47c0-6.43,4.35-9.87,14.28-10.9l6.36-.65v-.71c0-3.44-2.47-5.52-6.17-5.52s-5.91,1.75-6.36,5.52l-7.79-1.17c1.04-6.49,6.75-10.71,14.15-10.71,8.44,0,14.34,4.61,14.34,12.98v20.25h-8.18v-4.15c-1.43,2.6-5.19,4.67-9.35,4.67-6.95,0-11.29-4.15-11.29-9.61ZM290.39,278.24c0-4.02,3.05-7.07,7.53-7.07s7.53,3.05,7.53,7.07-3.05,7.14-7.53,7.14-7.53-3.05-7.53-7.14ZM297.98,306.61c-4.61.52-6.56,1.82-6.56,4.54,0,2.4,1.95,3.76,4.87,3.76,4.67,0,7.72-3.89,7.72-8.57v-.52l-6.04.78ZM301.1,278.24c0-1.69-1.23-3.12-3.18-3.12s-3.24,1.43-3.24,3.12,1.3,3.25,3.24,3.25,3.18-1.49,3.18-3.25Z"/>
      <path class="cls-3" d="M319.08,287.85h8.24v4.41c1.82-3.12,5.32-4.93,9.54-4.93,1.36,0,2.98.19,4.02.65l-.58,7.79c-1.3-.52-2.73-.71-4.15-.71-4.74,0-8.83,3.89-8.83,13.11v12.4h-8.24v-32.71Z"/>
      <path class="cls-3" d="M344.98,287.85h8.24v4.28c1.69-2.47,5.52-4.8,10.64-4.8,7.08,0,12.14,4.54,12.14,12.2v21.03h-8.24v-19.28c0-4.22-2.53-6.75-6.3-6.75-5.13,0-8.24,4.35-8.24,11.81v14.21h-8.24v-32.71Z"/>
    </g>
  </g>
</svg>