<?xml version="1.0" encoding="UTF-8"?>
<svg id="Layer_1" data-name="Layer 1" xmlns="http://www.w3.org/2000/svg" viewBox="0 0 60 52.95">
  <defs>
    <style>
      .cls-1 {
        fill: none;
      }

      .cls-2 {
        fill: #3b2314;
      }

      .cls-3 {
        fill: #231f20;
      }

      .cls-4 {
        fill: #f1dbb0;
      }

      .cls-5 {
        fill: #fff;
      }
    </style>
  </defs>
  <path class="cls-1" d="M29.91,39.45c-.4-1.9-1.38-3.8-2.41-5.34-.77-.98-2.73-.92-3.86-1.03-.26-.02-.55-.04-.86-.06,1.49,2.93,4.03,5.29,7.13,6.42Z"/>
  <path class="cls-1" d="M26.97,18.88c.39.76.63,1.71.67,2.65.14-.05.28-.1.42-.15.35-.12.7-.23,1.06-.35-.35-.71-.53-1.47-.56-2.27-.39.11-.8.09-1.12-.17-.62-.5-.63-1.14-.67-1.85-.34.25-.67.5-.98.78.49.34.9.81,1.18,1.36Z"/>
  <path class="cls-2" d="M50.36,35.5c-.16-.09-.31-.06-.39.08-.13.22,0,.63.37,1.23.45.69.86,1.19,1.39,1.71-.32-1.5-.88-2.73-1.37-3.02Z"/>
  <path class="cls-2" d="M42.95,38.93c-.07-.13-.17-.19-.24-.15-.08.04-.11.23-.06.5l.04.33c.15.87.06.36.28,1.53.12.59.06.28.19.94.24,1.31.11.66.37,2,.14-.84.15-1.54.04-2.55-.11-.98-.4-2.16-.63-2.59Z"/>
  <path class="cls-2" d="M45.64,43.56c-.08-.1-.2-.14-.27-.09-.1.08-.07.25.12.7.23.56.47.98.69,1.27.01.02.03.02.04.04l.06.02s0,.01-.01.02c.09.09.19.14.35.17l-.7-1.59c-.09-.22-.21-.43-.29-.53Z"/>
  <path class="cls-2" d="M49.29,7.2c-.21-.16-.42-.3-.63-.45.07.54.06,1.1,0,1.64-.09.77-.23,1.55-.43,2.31-.12.44-.24,1.03-.56,1.4-.02.36-.03.72-.05,1.08-.03.98-.04,2.08.39,3,.22.46.55.84.81,1.27.92,1.57.17,2.97-.93,4.22-.34.39-.73.75-1.11,1.12.04.11.08.21.12.32,1.73,5.47-.24,11.68-5.05,14.93-3.36,2.27-7.73,3.16-11.66,2-3.19-.94-5.98-3.05-7.7-5.87-.05.2-.1.41-.16.61-.27.95-.6,1.83-1.39,2.49-2.05,1.68-5.12,2.13-7.69,1.86-.48-.05-.97-.14-1.46-.24,1.68,3.29,4.05,6.23,7.06,8.52,7.66,5.85,18.4,7.07,26.96,2.42,8.21-4.45,13.35-13.09,13.4-22.42-.04-7.84-3.67-15.43-9.93-20.2ZM29,44.81c-.07.15-.18.22-.48.3-.41.09-.87.26-1.51.53-.04.08-.09.19-.11.22-.29.67-.1,1.24.5,1.5.18.08.32.1.6.1l-.06.3c-.25-.05-.37-.09-.5-.14-.69-.3-1.01-.87-.96-1.72-.6.36-.88.57-1.48,1.08-.93.8-.95.8-1.35.63-.25-.11-.41-.3-.47-.51-.8-.12-1.37-.35-1.82-.73-.53-.45-.66-1.13-.28-1.57.15-.18.32-.32.55-.43l2.78-1.46c.06-.03.1-.06.11-.07.02-.02,0-.05-.01-.06-.06-.05-.02-.05-.52-.02-.51.03-.78.09-1.55.3-.63.19-1.39.45-1.91.66-1.63.66-1.51.64-1.83.37-.36-.3-.39-.82-.08-1.19.17-.21.26-.27.66-.49l2.8-1.48s.06-.03.08-.05c.02-.02.02-.05,0-.06-.07-.08-.7-.03-1.42.12-.9.19-2.18.63-3.53,1.21-.42.17-.61.16-.86-.04-.34-.28-.37-.77-.08-1.11.14-.17.35-.31.72-.54l2.72-1.53,1.43.67-4.32,2.42s-.07.04-.09.06c-.03.03-.02.07,0,.08.02.02.09.01.18-.02t.34-.17c.18-.1.36-.19.56-.29,2.16-1.12,4.09-1.43,4.85-.79.32.27.37.7.12,1-.07.09-.18.17-.31.25l-3.4,1.82c-.05.02-.09.04-.1.05-.02.02-.01.06.02.08.05.04.15,0,.94-.39,2.33-1.17,4.29-1.49,5.07-.84.35.29.41.7.15,1.01-.07.09-.19.18-.31.25l-2.5,1.35c-.2.1-.35.21-.47.33-.17.18-.12.46.14.68.24.2.57.33,1.12.42,0-.07,0-.14.04-.21.09-.2.4-.61.72-.95l2.01-2.12,1.54.24-3.34,3.51q-.09.1-.1.13s-.01.06.01.07c.02.01.09-.02.16-.07.04-.03-.22.22.77-.71.58-.54,1.14-.99,1.62-1.29.36-.58.59-.8.97-1.01.42-.22.91-.27,1.23-.13.2.09.31.3.23.48ZM51.92,38.72c.14.11.31.23.41.29.49.29.88.21,1.17-.27.36-.6.48-1.37.39-2.25l.19-.02c.12,1.17-.05,1.91-.64,2.9-.46.77-.9,1.09-1.42,1.01-.13.91-.44,1.55-1.09,2.3-.62.71-1.14.93-1.66.7-.24.65-.66,1.16-1.49,1.86.22.55.21.53.29.74.18.43.31.7.47,1,.14.24.12.36-.02.51q-.43.44-.49.49c-.12.1-.3.09-.39-.02-.02-.02.02.07-.28-.58-.06-.12-.23-.52-.47-1.08l-.06-.15-.07-.16-.06-.16c-.23.12-.42.13-.61.04-.36.61-.86,1.04-1.82,1.58.12.58.11.56.15.78.1.46.17.74.27,1.07.09.26.05.38-.12.5q-.5.35-.57.39c-.14.07-.31.03-.38-.09-.01-.02,0,.07-.17-.63-.04-.13-.13-.56-.27-1.14l-.03-.16-.04-.17-.03-.17c-.45.14-.71-.02-1.02-.6-.04-.07-.06-.16-.1-.24-.06.02-.13.05-.19.07-.3.08-.5.1-.84.07-.42,1.43-1.08,2.25-2.09,2.53-.56.16-1.02.07-1.35-.18-.18.07-.13.05-.24.09-1.51.52-2.39.7-3.41.68-2.16-.03-3.59-1.39-3.55-3.4.05-2.79,2.98-5.68,5.74-5.64,1.2.02,1.98.87,1.96,2.19-.03,2.16-2.32,4.55-4.34,4.52-.72-.01-1.23-.45-1.23-1.03.01-.8.7-1.81,1.75-2.55.54-.38,1.1-.65,1.94-.95l.07.18c-.57.28-1.32.74-1.86,1.16-1.05.8-1.66,1.6-1.67,2.17,0,.43.29.73.71.74.53,0,1.39-.57,2.26-1.53.51-.57,1.07-1.37,1.4-2.01.28-.55.39-.91.4-1.34.01-.78-.52-1.33-1.31-1.34-1.03-.02-2.21.97-3.28,2.75-.77,1.31-1.35,2.97-1.37,3.92-.02,1.23.77,1.84,2.44,1.86.97.02,1.79-.15,3.35-.69-.1-.13-.19-.29-.24-.48-.24-.87-.12-1.97.34-2.86.33-.66.98-1.39,1.34-1.51.05-.01.11,0,.12.05.01.05,0,.14-.04.23-.22.41-.39,1.16-.46,2.05-.09.8-.06,1.52.05,1.92.13.46.41.7.73.61.57-.16.98-1.02,1.12-2.41-.73-.54-1.01-.91-1.18-1.53-.23-.83-.05-1.53.44-1.67.55-.15,1.19.38,1.42,1.19.18.66.2,1.23.06,2.01.21.06.34.07.58,0,.12-.03.23-.08.33-.13-.14-.37-.26-.76-.31-1.18-.07-.52-.02-.76.18-.87.24-.13.39-.03.75.48l-.42-2.25c-.21-1.12-.23-2.15-.06-3.04.13-.71.37-1.23.59-1.35.22-.11.54.14.81.64.84,1.59.92,3.42.25,5.41l.55,2.61c.87-.47,1.32-.88,1.69-1.48-.1-.08-.2-.19-.31-.33-.32-.41-.6-.94-.79-1.52-.16-.5-.16-.75.02-.89.21-.17.38-.1.83.33l-.82-2.14c-.41-1.06-.62-2.07-.62-2.98,0-.73.14-1.28.33-1.43.19-.15.56.04.91.48,1.12,1.41,1.53,3.19,1.24,5.28l1.02,2.46c.76-.62,1.14-1.1,1.39-1.75-.06-.04-.12-.08-.18-.13-.59-.51-1.14-1.53-1.34-2.44-.2-.95-.04-1.85.45-2.41.36-.41.84-.47,1.21-.15.38.33.65,1.06.67,1.8.02.51-.06.92-.33,1.82.12.14.27.28.36.36.43.37.83.36,1.2-.06.39-.44.62-1.04.73-1.74-.1-.04-.21-.08-.32-.15-.67-.4-1.4-1.29-1.76-2.15-.37-.9-.37-1.81,0-2.45.28-.47.74-.61,1.16-.36.43.26.83.93.99,1.65.11.5.1.92,0,1.85Z"/>
  <path class="cls-2" d="M46.45,42.05c-.01-.85-.14-1.54-.43-2.52-.29-.94-.79-2.05-1.09-2.44-.09-.11-.2-.15-.26-.1-.07.06-.07.25.03.5l.1.32c.31.83.13.35.56,1.45.23.56.11.26.36.89.47,1.24.23.62.73,1.9Z"/>
  <path class="cls-2" d="M48.2,38.32c-.17.2-.12.61.14,1.27.32.76.63,1.32,1.06,1.93-.04-1.53-.37-2.84-.8-3.22-.14-.12-.29-.12-.4,0Z"/>
  <path class="cls-2" d="M23.48,13.07c.78.37,1.44.87,1.5,1.6,0,.8-.04,1.6-.1,2.41,0,0,.01,0,.02,0,.18.05.34.13.51.21.42-.35.86-.67,1.32-.96-.09-.74-.41-1.38-.71-2.06-.51-1.18-.06-1.92.98-2.33,0-.01,0-.03-.01-.04-.77-.36-.81-2.08-.85-2.72-.11-1.63.02-3.43.65-4.96.22-.55.53-1.12.97-1.54-.56.14-1.11.3-1.65.49-4.61,1.57-8.63,4.5-11.62,8.25,1.96.02,3.93.17,5.83.61,1.06.24,2.2.53,3.18,1.06Z"/>
  <path class="cls-2" d="M42.45,45.41c-.06-.11-.17-.18-.25-.13-.11.06-.11.23,0,.71.04.19.09.33.13.49.1-.08.21-.17.33-.28l.11.4c-.13.08-.24.14-.35.2.07.22.15.41.23.56.09.17.19.25.39.32l-.4-1.69c-.05-.24-.13-.46-.19-.57Z"/>
  <path class="cls-2" d="M39.35,44.04c-.21.06-.25.45-.11.97.16.57.53,1.14.99,1.52,0-.59-.08-1.11-.22-1.62-.16-.57-.44-.94-.66-.88Z"/>
  <path class="cls-3" d="M48.43,5.83c-.24-.63-.68-1.16-1.37-1.49-.33-2.2-3.25-3.23-5.09-3.7-3-.77-6.31-.85-9.35-.24-1.16.23-2.43.62-3.3,1.46-.27.26-.81.32-1.21.52-1.92.46-3.8,1.11-5.59,1.99-3.43,1.68-6.39,4.11-8.72,7.03-2.53.05-5.12.36-7.5,1.24-1.17.43-3,1.29-2.96,2.79,0,.15.03.29.07.42.01.11.02.21.04.33.05.38.11.77.16,1.15-.04.01-.06.02-.1.03-1.4.58-2.68,1.7-3.28,3.1-.4,1.19-.2,2.35.35,3.41-.19.69-.07,1.35-.12,2.06-.07,1.04.5,1.91,1.26,2.61-.04.32-.06.66-.02,1.02.06.57.05,1.02.3,1.57.34.71.99,1.26,1.62,1.7.12.08.25.14.37.22.18.39.36.73.53.97.77,1.08,1.86,1.91,3.05,2.49.03.01.06.03.09.04.34.43.75.82,1.26,1.17.57.39,1.21.67,1.87.88,1.79,3.65,4.43,6.89,7.75,9.37,7.08,5.29,16.59,6.35,24.8,3.25,8.16-3.08,14.29-10.24,16.12-18.75.37-1.73.54-3.51.55-5.28-.05-8.62-4.43-16.63-11.57-21.37ZM28.36,12.28c.65.37,1.23,1.09,1.36,1.6.04.15.76-.04.72-.19-.08-.32-.27-.63-.51-.92-.21-.69-.3-1.38-.14-2.12.09-.45.27-.95.03-1.39-.1-.18.66-.81.73-1.2.05-.29-.12-.58-.27-.8-.02-.04,1.56-.29,1.76-.34.07-.02.16-.08.11-.16-.5-.85-1.35-1.84-1.51-2.87.61.53,1.42.9,2.12,1.2,1.88.82,3.95,1.09,5.99,1.01.61-.03,1.72-.4,2.27-.08.35.21.77.4,1.17.48.72.15,1.34.06,1.99-.26.58-.28,1.31.1,1.97-.04.07-.02.13-.06.19-.09.53,1.15.68,2.5.71,3.74.06,2.15-.67,4.59.29,6.63.27.58.74,1.04,1,1.63.66,1.52-.48,2.85-1.47,3.9-.97,1.04-1.95,1.93-2.66,3.18-.52.91-.85,1.84-1.93,2.19-3.6,1.16-6.51-1.13-9.13-3.26-1.01-.82-2.09-1.55-2.92-2.57-.75-.93-1-2.03-.98-3.16.18-.14.33-.3.44-.46.05-.07-.6-.04-.71.13-.8,1.23-1.48-.6-1.53-1.25-.07-.97-.22-1.67-.63-2.56-.35-.75-.63-1.49.19-2.06.18-.12.37-.15.57-.15.25.06.51.13.77.23ZM24.95,17.79s.08.04.12.07c.35.21.62.53.86.86.93,1.28,1.16,3.24.64,4.71-.26.74-.79,1.33-1.6,1.43-.9.11-1.37-.61-1.64-1.35-.39-1.04-.63-4.13,1.02-4.3.02,0,.04-.01.07-.02,0,0,0,0,0,0,.03,0,.06-.01.09-.02.02,0,.04,0,.06-.02.53-.23.4-.87.39-1.35ZM25.79,17.52c.31-.28.64-.53.98-.78.04.71.05,1.34.67,1.85.32.26.73.28,1.12.17.03.8.2,1.56.56,2.27-.35.12-.71.23-1.06.35-.14.05-.28.1-.42.15-.04-.94-.28-1.89-.67-2.65-.28-.55-.68-1.02-1.18-1.36ZM23.64,33.09c1.12.11,3.09.04,3.86,1.03,1.02,1.54,2.01,3.43,2.41,5.34-3.1-1.13-5.64-3.49-7.13-6.42.31.02.6.03.86.06ZM26.08,3.16c.55-.19,1.1-.35,1.65-.49-.44.42-.74.99-.97,1.54-.62,1.53-.76,3.33-.65,4.96.04.63.08,2.35.85,2.72,0,.01,0,.03.01.04-1.04.42-1.49,1.15-.98,2.33.3.69.62,1.32.71,2.06-.46.29-.89.61-1.32.96-.16-.08-.33-.16-.51-.21,0,0-.01,0-.02,0,.06-.81.1-1.61.1-2.41-.07-.72-.72-1.23-1.5-1.6-.98-.53-2.12-.82-3.18-1.06-1.91-.44-3.88-.59-5.83-.61,2.99-3.75,7.01-6.67,11.62-8.25ZM4.17,14.99c.29-.99,2.01-1.69,2.8-1.96,2.27-.78,4.74-1,7.13-1.03,2.84,0,5.86.29,8.5,1.42,1.04.44,2.18,1.37,1.1,2.4-.55.52-1.29.84-2.03,1.09-.32.11-.64.2-.95.29-1.47.41-2.99.62-4.51.76-3.04.28-6.28.28-9.25-.53-.13-.04-.27-.08-.4-.12-.81-.25-1.67-.61-2.16-1.29-.13-.18-.21-.36-.24-.53,0-.17,0-.34.02-.49ZM.98,20.56c.49-1.15,1.54-2.17,2.72-2.65.03.16.05.32.08.48.07.5.13,1.01.19,1.51.06.48.11.96.16,1.43.02.15-.02.47.09.61.63.79,1.64,1.37,2.55,1.78,1.25.57,2.23,1.27,2.1,2.78-.15,1.89-2.22,1.63-3.45.95C3.19,26.22,0,23.44.98,20.56ZM1.27,26.13c-.07-.43-.08-.84-.05-1.23.25.33.53.65.83.95,1.24,1.66,3.3,3.82,5.32,3.23.5-.15.81-.42,1.02-.74.34-.17.65-.41.9-.75.26-.35.39-.77.42-1.19.21.06.42.11.63.17,1.38.44,2.09,2.4,1.68,3.73-.17.56-.82.75-1.55.79.09-.07.15-.15.11-.24-.22-.59-.33-1.25-.36-1.88-.01-.3-.82-.13-.8.22.03.63.13,1.29.36,1.88,0,.01.01.02.02.03-.71-.04-1.42-.17-1.82-.24-2.45-.46-6.26-1.89-6.7-4.71ZM4,32.28c-.49-.37-.9-.83-1.2-1.37-.29-.51-.22-.98-.3-1.52-.01-.07,0-.14,0-.22.35.25.72.46,1.05.65.13.07.26.12.39.19.75.44,1.79.94,3.21,1.47,2.85,1.06,4.27.08,4.81-.5.07-.04.15-.08.22-.12.77.73.81,2.01.33,3.07-.61,1.33-3.56.44-4.62.16-1.38-.37-2.73-.94-3.88-1.8ZM8.45,36.28c-.93-.43-1.73-.99-2.46-1.71-.26-.26-.49-.54-.71-.83.29.12.57.25.87.36.06.04.12.07.19.11.81.43,1.96.87,2.99,1.04,0,.01-.02.02-.03.04-.2.4-.04.73.12,1.1.08.18.3.2.47.15.12-.03.41-.19.33-.37-.11-.25-.3-.54-.16-.81,0-.02,0-.03,0-.04.52,0,.96-.11,1.25-.37.09.56-.14,1.04-.49,1.48-.61.77-1.74.17-2.39-.13ZM9.29,37.13c.51.09,1.03.06,1.52-.18.12-.06.23-.13.34-.2.41-.19.64-.54.76-.87.12-.25.19-.51.21-.79.39-.1.9-.1,1.35-.8.68-1.06.35-1.93.13-2.34-.06-.48-.24-.92-.55-1.27.01-.03.02-.06.03-.1.86-2.67-1.07-3.71-1.07-3.71,0,0,0,0,0,0-.09-.1-.18-.21-.27-.28-.32-.25-.71-.39-1.1-.48.25-1.63-1.83-2.19-2.08-2.25-.37-.27-.8-.48-1.21-.63-.76-.28-1.47-.81-2.09-1.32-.09-.08-.15-.16-.2-.25-.02-.14-.04-.29-.07-.43-.07-.51-.14-1.01-.22-1.52-.05-.4-.09-.8-.14-1.19-.04-.35-.08-.68-.17-.92-.03-.16-.05-.32-.09-.5,1.01.7,2.52,1,3.44,1.18,3.03.59,6.23.53,9.29.18,2.3-.26,5.17-.64,7.03-2.17-.04.82-.09,1.64-.17,2.46-.89.28-1.37,1.04-1.58,1.94-.66,1.6-.7,3.67.89,4.27-.17,1.44-.35,2.88-.58,4.31-.31,2.01-.66,4.04-1.26,5.99-.45,1.46-1.4,2.4-2.86,2.97-2.85,1.11-6.79.81-9.29-1.12ZM45.82,49.82c-8.57,4.65-19.3,3.42-26.96-2.42-3.01-2.3-5.38-5.24-7.06-8.52.48.11.97.19,1.46.24,2.56.27,5.64-.18,7.69-1.86.8-.66,1.12-1.54,1.39-2.49.06-.2.1-.4.16-.61,1.72,2.82,4.51,4.93,7.7,5.87,3.94,1.16,8.3.27,11.66-2,4.8-3.25,6.78-9.46,5.05-14.93-.03-.11-.08-.21-.12-.32.38-.37.77-.73,1.11-1.12,1.1-1.25,1.85-2.65.93-4.22-.26-.44-.59-.81-.81-1.27-.43-.91-.42-2.02-.39-3,.01-.36.03-.72.05-1.08.32-.37.44-.96.56-1.4.2-.75.34-1.53.43-2.31.07-.54.07-1.11,0-1.64.21.15.42.29.63.45,6.26,4.78,9.88,12.37,9.93,20.2-.05,9.33-5.19,17.97-13.4,22.42Z"/>
  <path class="cls-5" d="M28.77,44.33c-.32-.14-.81-.08-1.23.13-.38.2-.61.43-.97,1.01-.48.3-1.04.75-1.62,1.29-.99.93-.73.69-.77.71-.07.06-.13.08-.16.07-.02-.01-.03-.04-.01-.07t.1-.13l3.34-3.51-1.54-.24-2.01,2.12c-.31.33-.63.74-.72.95-.03.07-.04.14-.04.21-.54-.09-.88-.22-1.12-.42-.26-.22-.31-.5-.14-.68.12-.12.26-.23.47-.33l2.5-1.35c.12-.07.23-.16.31-.25.26-.31.2-.71-.15-1.01-.77-.65-2.74-.32-5.07.84-.79.4-.89.44-.94.39-.03-.03-.03-.06-.02-.08,0,0,.04-.03.1-.05l3.4-1.82c.13-.08.23-.16.31-.25.25-.3.19-.73-.12-1-.76-.64-2.69-.34-4.85.79-.2.1-.38.19-.56.29q-.3.15-.34.17c-.09.03-.16.03-.18.02-.02-.02-.02-.05,0-.08.02-.02.05-.04.09-.06l4.32-2.42-1.43-.67-2.72,1.53c-.38.23-.58.37-.72.54-.29.35-.26.83.08,1.11.25.21.44.22.86.04,1.35-.58,2.63-1.02,3.53-1.21.72-.15,1.35-.2,1.42-.12.02.02.01.04,0,.06-.02.02-.04.03-.08.05l-2.8,1.48c-.4.22-.49.28-.66.49-.31.37-.27.89.08,1.19.32.27.2.29,1.83-.37.51-.21,1.27-.47,1.91-.66.77-.21,1.04-.27,1.55-.3.5-.03.47-.03.52.02.02.02.03.04.01.06,0,0-.05.04-.11.07l-2.78,1.46c-.23.11-.4.26-.55.43-.37.45-.25,1.12.28,1.57.45.38,1.02.61,1.82.73.07.21.23.4.47.51.4.17.42.17,1.35-.63.6-.52.87-.72,1.48-1.08-.04.85.27,1.43.96,1.72.13.06.25.1.5.14l.06-.3c-.28,0-.42-.03-.6-.1-.59-.26-.78-.83-.5-1.5.02-.04.07-.14.11-.22.64-.27,1.1-.44,1.51-.53.3-.08.41-.15.48-.3.08-.18-.03-.39-.23-.48Z"/>
  <path class="cls-5" d="M50.93,35.22c-.42-.25-.89-.1-1.16.36-.38.63-.38,1.55,0,2.45.36.86,1.09,1.76,1.76,2.15.11.06.21.11.32.15-.11.7-.35,1.3-.73,1.74-.37.42-.77.43-1.2.06-.09-.08-.24-.22-.36-.36.27-.9.35-1.31.33-1.82-.02-.74-.29-1.47-.67-1.8-.37-.32-.85-.26-1.21.15-.48.56-.65,1.46-.45,2.41.2.91.76,1.93,1.34,2.44.06.05.12.09.18.13-.25.65-.62,1.13-1.39,1.75l-1.02-2.46c.29-2.08-.12-3.87-1.24-5.28-.35-.45-.72-.63-.91-.48-.19.15-.33.71-.33,1.43,0,.91.2,1.92.62,2.98l.82,2.14c-.45-.44-.61-.5-.83-.33-.18.14-.18.39-.02.89.19.57.47,1.11.79,1.52.11.14.21.24.31.33-.37.6-.82,1-1.69,1.48l-.55-2.61c.67-1.99.59-3.83-.25-5.41-.27-.5-.59-.76-.81-.64-.22.11-.45.64-.59,1.35-.17.89-.15,1.92.06,3.04l.42,2.25c-.36-.51-.51-.61-.75-.48-.21.11-.25.35-.18.87.06.42.17.81.31,1.18-.11.05-.21.1-.33.13-.24.07-.37.06-.58,0,.13-.78.12-1.35-.06-2.01-.23-.81-.87-1.34-1.42-1.19-.49.14-.67.83-.44,1.67.17.61.45.99,1.18,1.53-.14,1.38-.54,2.25-1.12,2.41-.32.09-.61-.15-.73-.61-.11-.4-.14-1.12-.05-1.92.07-.89.24-1.64.46-2.05.04-.09.06-.18.04-.23-.01-.04-.07-.06-.12-.05-.35.13-1.01.86-1.34,1.51-.46.89-.59,1.99-.34,2.86.05.19.13.35.24.48-1.56.54-2.38.71-3.35.69-1.67-.03-2.46-.63-2.44-1.86.02-.96.6-2.62,1.37-3.92,1.06-1.78,2.24-2.77,3.28-2.75.79.01,1.32.56,1.31,1.34,0,.43-.12.79-.4,1.34-.33.64-.89,1.43-1.4,2.01-.87.96-1.73,1.54-2.26,1.53-.43,0-.72-.31-.71-.74,0-.57.62-1.37,1.67-2.17.54-.42,1.28-.88,1.86-1.16l-.07-.18c-.85.3-1.41.57-1.94.95-1.05.73-1.74,1.74-1.75,2.55,0,.58.5,1.02,1.23,1.03,2.02.03,4.31-2.36,4.34-4.52.02-1.32-.75-2.17-1.96-2.19-2.77-.04-5.7,2.84-5.74,5.64-.03,2,1.39,3.36,3.55,3.4,1.02.02,1.9-.16,3.41-.68.12-.04.06-.02.24-.09.33.25.79.33,1.35.18,1.01-.28,1.67-1.1,2.09-2.53.34.03.54.01.84-.07.06-.02.13-.05.19-.07.03.08.06.17.1.24.31.58.57.74,1.02.6l.03.17.04.17.03.16c.13.59.23,1.02.27,1.14.18.7.16.6.17.63.08.12.25.16.38.09q.07-.04.57-.39c.17-.12.21-.24.12-.5-.1-.33-.18-.61-.27-1.07-.05-.22-.03-.2-.15-.78.96-.54,1.46-.97,1.82-1.58.19.09.38.07.61-.04l.06.16.07.16.06.15c.24.55.41.96.47,1.08.3.65.27.56.28.58.1.1.27.11.39.02q.06-.05.49-.49c.15-.15.16-.28.02-.51-.16-.3-.28-.57-.47-1-.09-.21-.07-.19-.29-.74.83-.7,1.24-1.21,1.49-1.86.52.24,1.04.02,1.66-.7.65-.75.95-1.39,1.09-2.3.52.09.96-.24,1.42-1.01.59-.99.76-1.73.64-2.9l-.19.02c.09.88-.03,1.65-.39,2.25-.28.48-.68.56-1.17.27-.1-.06-.27-.18-.41-.29.1-.93.11-1.35,0-1.85-.16-.72-.56-1.4-.99-1.65ZM39.24,45.01c-.15-.52-.11-.91.11-.97.22-.06.5.3.66.88.14.51.22,1.03.22,1.62-.46-.38-.83-.95-.99-1.52ZM42.65,47.35c-.08-.15-.16-.34-.23-.56.11-.06.22-.11.35-.2l-.11-.4c-.12.11-.23.2-.33.28-.04-.16-.09-.31-.13-.49-.1-.47-.11-.65,0-.71.08-.04.19.02.25.13.06.11.14.34.19.57l.4,1.69c-.2-.07-.3-.15-.39-.32ZM43.53,44.08c-.26-1.34-.13-.69-.37-2-.13-.66-.07-.35-.19-.94-.22-1.17-.13-.66-.28-1.53l-.04-.33c-.05-.26-.02-.46.06-.5.07-.04.17.02.24.15.23.43.52,1.61.63,2.59.11,1.01.1,1.72-.04,2.55ZM45.37,39.26c-.43-1.11-.25-.63-.56-1.45l-.1-.32c-.1-.25-.11-.44-.03-.5.06-.05.18,0,.26.1.31.38.8,1.49,1.09,2.44.29.97.42,1.67.43,2.52-.5-1.27-.26-.66-.73-1.9-.25-.63-.13-.33-.36-.89ZM46.27,45.51s0-.01.01-.02l-.06-.02s-.03-.02-.04-.04c-.23-.28-.46-.71-.69-1.27-.19-.45-.22-.61-.12-.7.07-.06.19-.02.27.09.08.1.19.31.29.53l.7,1.59c-.16-.03-.26-.08-.35-.17ZM48.34,39.59c-.27-.66-.31-1.08-.14-1.27.11-.13.27-.13.4,0,.43.37.76,1.69.8,3.22-.43-.61-.74-1.18-1.06-1.93ZM50.34,36.8c-.38-.6-.5-1-.37-1.23.09-.14.24-.17.39-.08.49.29,1.05,1.52,1.37,3.02-.53-.53-.94-1.02-1.39-1.71Z"/>
  <path class="cls-4" d="M27.02,12.21c-.82.57-.54,1.31-.19,2.06.42.89.57,1.59.63,2.56.05.65.73,2.48,1.53,1.25.11-.17.76-.2.71-.13-.11.16-.26.32-.44.46-.02,1.13.23,2.23.98,3.16.83,1.02,1.91,1.75,2.92,2.57,2.62,2.12,5.52,4.42,9.13,3.26,1.07-.35,1.41-1.28,1.93-2.19.71-1.25,1.68-2.14,2.66-3.18.99-1.05,2.13-2.38,1.47-3.9-.26-.59-.72-1.05-1-1.63-.96-2.04-.23-4.48-.29-6.63-.03-1.23-.18-2.58-.71-3.74-.06.03-.12.07-.19.09-.66.15-1.4-.23-1.97.04-.66.31-1.28.41-1.99.26-.4-.08-.82-.27-1.17-.48-.54-.33-1.66.05-2.27.08-2.04.08-4.11-.19-5.99-1.01-.7-.31-1.51-.68-2.12-1.2.16,1.03,1.01,2.02,1.51,2.87.05.08-.04.15-.11.16-.21.05-1.79.3-1.76.34.15.23.32.52.27.8-.06.39-.83,1.01-.73,1.2.24.44.06.94-.03,1.39-.15.74-.07,1.43.14,2.12.24.28.43.6.51.92.04.16-.68.35-.72.19-.13-.51-.71-1.23-1.36-1.6-.26-.1-.52-.17-.77-.23-.2,0-.39.03-.57.15ZM41.65,25.77c-.15.08-.34.12-.51.08-.55-.1-1.05.19-1.61.07-.17-.04.02-.19.08-.22.15-.08.34-.12.51-.08.21.05.45-.08.66-.1.32-.04.63-.03.95.04.17.03-.02.19-.08.22ZM46.8,20.33c.13.2.1.45.02.67-.03.07-.32.12-.3.05.03-.09.02-.17.01-.24-1.3,1.01-2.36,2.19-3.54,3.33-.74.72-1.76.78-2.74.76-.51-.01-1.17.02-1.6-.31-.5-.38-.8-.92-1.19-1.4-.97-1.21-2.33-1.95-3.57-2.84-.1-.07.52-.36.68-.24,1.43,1.07,3.34,1.69,5.07,2.05,1.95.41,4.15.49,5.7-.91.03-.02.08-.05.15-.07.16-.12.3-.26.46-.38.08-.06.36-.11.53-.12-.09-.2-.29-.34-.5-.46-.01,0-.03,0-.04,0-.03,0-.12,0-.07-.05.05-.05.13-.07.2-.07.25-.03.57-.01.72.22ZM36.51,15.37c-.05-.1.02-1.16.11-1.42.33-.91.98-.34,1.04.04.11.64.15,1.32.09,1.98,0,.27-.27,1.78-.84,1.51-.32-.16-.48-1.14-.41-1.79.22-.02.71,0,.71,0-.12-.22-.58-.12-.71-.31ZM44.92,11.08c.88.3,1.36,1.25,1.26,1.58-.1.33-.2.03-.26-.15-.3-.92-1.78-.77-2.48-.77-1.71-.02.91-1.14,1.48-.66ZM44,15.62c.18.02.35.09.5.12.03.25-.15,1.64-.63,1.47-.42-.15-.43-1.38-.42-1.71.01-.58,0-1.17.26-1.72.49-1.07.89-.11.88.47,0,.23.03.87-.06,1.09-.1.19-.34.09-.54.25v.02ZM40.41,17.97c.22-.03.45-.03.66.06.15.07.02.19-.07.24-.13.07-.36.15-.51.08-.04-.02-.08-.03-.13-.04-.02,0-.02,0-.03,0,0,0,0,0,0,0,0,0,0,0-.02,0-.07,0-.35.03-.3-.12.05-.14.29-.21.42-.22ZM39.67,19.73c.34-.22.76-.29,1.16-.25.62.06,1.38,1.04,1.99.59.41-.3.59-.93.47-1.42-.17-.73-.75-1.09-1.45-1.22-.17-.03.02-.19.08-.22.15-.08.34-.12.51-.08.58.12,1.17.43,1.44.97.12-.14.46-.25.61-.16.39.25.63.78.57,1.25-.07.64-.64.92-1.21,1.02-.1.02-.35,0-.32-.17,0-.04.03-.07.05-.09-.34.33-.79.48-1.26.52-.33.03-.75.03-1.03-.16-.23-.16-.9-.62-1.05-.52-.15.1-.88.15-.56-.06ZM39.47,18.41c-.44.43-.47,1.01.01,1.43.31.27-.32.62-.56.41-.67-.58-.7-1.43-.06-2.05.13-.13.33-.2.51-.14.15.05.22.22.09.34ZM35.42,11.71c.62-.49,1.4-.73,2.24-.76.25,0,1.47-.05,1.54.5.05.43-.51.27-.74.24-.45-.03-1.01-.1-1.46-.03-.5.09-.86.36-1.31.54-.14.06-.44.15-.57-.02-.15-.18.16-.36.3-.47ZM33.67,19.78c.22-.16.49-.2.75-.26.19-.04.25.18.06.22,0,0-.02,0-.03,0-.03.03-.06.06-.11.06-.37.03-.58.32-.71.64-.05.13-.34.13-.29-.04.06-.22.13-.48.33-.63ZM29.69,15.24c.04.12-.26.21-.3.08-.13-.4-.35-.72-.59-1.02-.96.44-.83,1.5,0,2.03.06.04-.2.16-.28.11-.43-.27-.83-.74-.71-1.28.1-.48.47-.78.9-.96-.47-.53-1.08-.94-1.76-1.23-.14-.06.13-.21.24-.16,1.13.49,2.12,1.24,2.52,2.44Z"/>
  <path class="cls-4" d="M44,18.39c.11.5.02,1.08-.32,1.48-.02.02-.04.03-.05.05.09-.07.22-.1.31-.12.62-.11.42-1.05.06-1.4Z"/>
  <path class="cls-3" d="M26.94,12.96c.68.29,1.29.7,1.76,1.23-.43.19-.8.48-.9.96-.12.54.28,1.01.71,1.28.08.05.34-.07.28-.11-.83-.53-.96-1.59,0-2.03.25.3.46.63.59,1.02.04.12.34.04.3-.08-.4-1.2-1.39-1.96-2.52-2.44-.11-.05-.38.1-.24.16Z"/>
  <path class="cls-3" d="M40.24,19.78c.15-.1.82.37,1.05.52.29.2.7.19,1.03.16.47-.04.92-.19,1.26-.52-.02.03-.04.06-.05.09-.04.16.21.19.32.17.57-.1,1.14-.39,1.21-1.02.05-.46-.18-.99-.57-1.25-.14-.09-.49.02-.61.16-.27-.55-.86-.86-1.44-.97-.17-.03-.35,0-.51.08-.06.03-.25.19-.08.22.7.14,1.28.5,1.45,1.22.11.49-.06,1.11-.47,1.42-.61.45-1.37-.53-1.99-.59-.4-.04-.82.02-1.16.25-.32.21.41.15.56.06ZM43.68,19.87c.35-.4.43-.98.32-1.48.36.36.56,1.29-.06,1.4-.09.02-.22.05-.31.12.02-.02.04-.03.05-.05Z"/>
  <path class="cls-3" d="M38.86,18.2c-.64.62-.62,1.47.06,2.05.24.21.87-.14.56-.41-.48-.42-.46-1-.01-1.43.12-.12.06-.29-.09-.34-.18-.06-.38,0-.51.14Z"/>
  <path class="cls-5" d="M40.51,22.63c-1.06-.08-2.22-.3-3.33-.66.09.07.18.14.26.22.69.66,1.29,2.11,2.27,2.32.58.12,1.84.29,2.33-.07.37-.27.64-.66.95-1,.39-.42.8-.82,1.23-1.2-1.15.42-2.42.48-3.71.39Z"/>
  <path class="cls-3" d="M40.78,25.52c-.21.03-.44.15-.66.1-.17-.04-.36,0-.51.08-.06.03-.25.18-.08.22.55.12,1.05-.17,1.61-.07.17.03.35,0,.51-.08.06-.03.25-.18.08-.22-.32-.06-.63-.08-.95-.04Z"/>
  <path class="cls-3" d="M36.51,15.7c-.07.65.08,1.63.41,1.79.57.27.84-1.24.84-1.51.06-.65.02-1.34-.09-1.98-.07-.38-.72-.95-1.04-.04-.09.26-.17,1.32-.11,1.42.13.19.59.1.71.31,0,0-.49-.01-.71,0Z"/>
  <path class="cls-3" d="M44.6,14.25c.01-.58-.39-1.54-.88-.47-.26.55-.25,1.14-.26,1.72-.01.33,0,1.55.42,1.71.48.17.66-1.23.63-1.47-.15-.02-.32-.1-.5-.12v-.02c.19-.16.43-.06.53-.25.1-.22.06-.86.06-1.09Z"/>
  <path class="cls-3" d="M40.3,18.31s.02,0,.02,0c0,0,0,0,0,0,0,0,0,0,.03,0,.05,0,.08.02.13.04.15.07.38,0,.51-.08.09-.05.23-.17.07-.24-.2-.09-.44-.09-.66-.06-.13.02-.37.08-.42.22-.05.15.24.13.3.12Z"/>
  <path class="cls-3" d="M43.44,11.75c.7,0,2.19-.15,2.48.77.06.18.16.48.26.15.1-.33-.38-1.28-1.26-1.58-.58-.48-3.2.64-1.48.66Z"/>
  <path class="cls-3" d="M35.69,12.21c.45-.18.81-.45,1.31-.54.45-.07,1.01,0,1.46.03.22.02.79.19.74-.24-.07-.55-1.28-.5-1.54-.5-.84.03-1.62.27-2.24.76-.14.11-.45.29-.3.47.13.17.43.09.57.02Z"/>
  <path class="cls-3" d="M33.63,20.45c.13-.32.33-.61.71-.64.05,0,.09-.03.11-.06,0,0,.02,0,.03,0,.19-.04.13-.26-.06-.22-.26.05-.53.1-.75.26-.2.14-.27.4-.33.63-.05.17.24.17.29.04Z"/>
  <path class="cls-3" d="M45.87,20.18s.04.06.07.05c.01,0,.03,0,.04,0,.21.11.41.26.5.46-.17,0-.45.05-.53.12-.16.12-.31.26-.46.38-.07.02-.12.04-.15.07-1.55,1.4-3.75,1.32-5.7.91-1.72-.36-3.64-.99-5.07-2.05-.16-.11-.78.17-.68.24,1.24.89,2.6,1.63,3.57,2.84.39.48.69,1.02,1.19,1.4.43.32,1.09.29,1.6.31.98.02,2.01-.04,2.74-.76,1.17-1.14,2.24-2.32,3.54-3.33.01.07.02.15-.01.24-.02.07.27.02.3-.05.08-.22.11-.46-.02-.67-.15-.24-.47-.25-.72-.22-.07,0-.15.02-.2.07ZM43,23.45c-.31.34-.58.73-.95,1-.49.35-1.75.19-2.33.07-.98-.21-1.58-1.66-2.27-2.32-.08-.08-.17-.15-.26-.22,1.11.36,2.27.58,3.33.66,1.3.09,2.56.04,3.71-.39-.42.39-.84.78-1.23,1.2Z"/>
  <path class="cls-5" d="M6.56,17.31c1.04-.44,3.6-1.33,7.59-1.4,1.78-.03,5.61.04,7.52,1.01.74-.25,1.48-.57,2.03-1.09,1.08-1.02-.06-1.96-1.1-2.4-2.64-1.13-5.66-1.41-8.5-1.42-2.38.03-4.86.25-7.13,1.03-.79.27-2.51.97-2.8,1.96-.02.16-.02.32-.02.49.04.17.11.34.24.53.5.68,1.35,1.04,2.16,1.29Z"/>
  <path class="cls-5" d="M18.57,38.25c1.46-.57,2.41-1.52,2.86-2.97.6-1.95.95-3.98,1.26-5.99.22-1.43.41-2.87.58-4.31-1.6-.6-1.55-2.67-.89-4.27.21-.9.69-1.66,1.58-1.94.08-.82.14-1.64.17-2.46-1.86,1.53-4.73,1.91-7.03,2.17-3.05.35-6.26.41-9.29-.18-.92-.18-2.43-.49-3.44-1.18.03.17.06.33.09.5.09.24.12.57.17.92.05.4.09.8.14,1.19.07.51.14,1.01.22,1.52.02.14.04.29.07.43.05.09.11.17.2.25.62.51,1.34,1.04,2.09,1.32.42.16.84.36,1.21.63.25.06,2.33.62,2.08,2.25.39.1.78.23,1.1.48.09.07.18.18.27.28,0,0,0,0,0,0,0,0,1.93,1.04,1.07,3.71-.01.04-.02.06-.03.1.31.34.49.79.55,1.27.22.41.55,1.28-.13,2.34-.45.7-.96.7-1.35.8-.02.28-.09.55-.21.79-.12.33-.35.68-.76.87-.11.07-.22.14-.34.2-.49.25-1.01.27-1.52.18,2.5,1.92,6.43,2.23,9.29,1.12Z"/>
  <path class="cls-2" d="M14.15,15.91c-3.99.07-6.55.96-7.59,1.4.14.04.27.09.4.12,2.96.81,6.21.81,9.25.53,1.52-.14,3.04-.35,4.51-.76.31-.09.63-.18.95-.29-1.91-.97-5.74-1.04-7.52-1.01Z"/>
  <path class="cls-4" d="M10.84,36.41c.34-.43.57-.91.49-1.48-.29.26-.73.37-1.25.37,0,.01,0,.03,0,.04-.14.27.05.56.16.81.08.18-.21.33-.33.37-.17.05-.39.03-.47-.15-.16-.37-.32-.71-.12-1.1,0-.01.02-.02.03-.04-1.03-.17-2.18-.61-2.99-1.04-.07-.04-.13-.07-.19-.11-.3-.1-.58-.23-.87-.36.22.29.45.58.71.83.73.71,1.53,1.28,2.46,1.71.65.3,1.78.91,2.39.13Z"/>
  <path class="cls-4" d="M12.49,33.93c.48-1.05.44-2.33-.33-3.07-.07.04-.14.09-.22.12-.54.58-1.95,1.57-4.81.5-1.43-.53-2.46-1.04-3.21-1.47-.13-.06-.26-.12-.39-.19-.34-.18-.7-.4-1.05-.65,0,.07,0,.14,0,.22.08.54.01,1.01.3,1.52.3.54.71,1,1.2,1.37,1.15.86,2.5,1.43,3.88,1.8,1.06.28,4.01,1.17,4.62-.16ZM10.19,32.6c.14-.24.95-.31.75.03-.26.45-.02,1.16.2,1.58.13.25-.65.51-.8.22-.27-.52-.46-1.29-.15-1.83Z"/>
  <path class="cls-4" d="M7.97,30.84c.4.07,1.1.2,1.82.24,0,0-.02-.01-.02-.03-.22-.59-.33-1.25-.36-1.88-.01-.34.79-.52.8-.22.03.63.13,1.29.36,1.88.03.09-.02.18-.11.24.73-.04,1.37-.24,1.55-.79.42-1.33-.3-3.29-1.68-3.73-.21-.07-.42-.12-.63-.17-.03.43-.16.84-.42,1.19-.25.34-.56.58-.9.75-.2.32-.51.59-1.02.74-2.01.59-4.07-1.57-5.32-3.23-.3-.3-.58-.62-.83-.95-.02.4-.01.81.05,1.23.44,2.82,4.25,4.25,6.7,4.71Z"/>
  <path class="cls-4" d="M5.42,27.46c1.22.69,3.29.94,3.45-.95.12-1.51-.86-2.2-2.1-2.78-.91-.42-1.91-1-2.55-1.78-.11-.13-.07-.45-.09-.61-.05-.48-.1-.96-.16-1.43-.06-.5-.12-1.01-.19-1.51-.02-.16-.05-.32-.08-.48-1.17.48-2.23,1.5-2.72,2.65-.98,2.87,2.21,5.66,4.44,6.9Z"/>
  <path class="cls-3" d="M11.15,34.21c-.22-.42-.46-1.13-.2-1.58.2-.35-.61-.28-.75-.03-.31.54-.12,1.31.15,1.83.15.29.93.03.8-.22Z"/>
  <path class="cls-4" d="M24.56,19.14s-.04.01-.06.02c-.03.01-.06.02-.09.02,0,0,0,0,0,0-.02,0-.04.01-.07.02-1.65.17-1.41,3.26-1.02,4.3.28.74.75,1.46,1.64,1.35.8-.1,1.34-.69,1.6-1.43.52-1.48.29-3.43-.64-4.71-.24-.33-.51-.65-.86-.86-.04-.02-.08-.04-.12-.07.02.48.15,1.12-.39,1.35Z"/>
</svg>